<svg width="1200" height="630" viewBox="0 0 1200 630" fill="none" xmlns="http://www.w3.org/2000/svg">
<g clip-path="url(#clip0_864_7080)">
<rect width="1200" height="630" fill="#080B1A"/>
<path fill-rule="evenodd" clip-rule="evenodd" d="M498.831 178.047L499.538 178.754C499.308 178.512 499.073 178.276 498.831 178.047Z" fill="url(#paint0_linear_864_7080)"/>
<path d="M431.88 173.189V177.446C432.641 176.782 433.455 176.177 434.323 175.631L431.88 173.189Z" fill="url(#paint1_linear_864_7080)"/>
<path d="M594.344 173.189V177.446C595.105 176.782 595.919 176.177 596.786 175.631L594.344 173.189Z" fill="url(#paint2_linear_864_7080)"/>
<path d="M1920.27 1408.47C1922.25 1410.6 1924.62 1412.5 1927.38 1414.16C1930.23 1415.74 1933.27 1416.96 1936.51 1417.83C1939.82 1418.7 1943.18 1419.13 1946.58 1419.13C1953.77 1419.13 1959.46 1417.47 1963.64 1414.16C1967.91 1410.84 1970.04 1406.37 1970.04 1400.76C1970.04 1397.13 1969.37 1394.21 1968.03 1392C1966.95 1390.16 1965.62 1388.63 1964.04 1387.4L1949.88 1373.24C1951.48 1373.4 1953.11 1373.81 1954.76 1374.46C1957.05 1375.33 1959.1 1376.83 1960.92 1378.96L1971.23 1368.53L1967.34 1364.64L784.301 181.603C781.694 178.285 778.297 175.796 774.11 174.137C770.001 172.399 765.498 171.53 760.6 171.53C755.938 171.53 751.87 172.32 748.393 173.9C744.917 175.48 742.231 177.653 740.335 180.418C738.439 183.104 737.491 186.304 737.491 190.017C737.491 191.031 737.548 191.995 737.662 192.909L725.171 180.418C723.364 178.516 721.274 176.896 718.902 175.559C714.557 173.11 709.54 171.885 703.852 171.885C698.005 171.885 692.751 173.189 688.09 175.796C683.429 178.403 679.715 181.998 676.95 186.58C676.033 188.117 675.273 189.728 674.669 191.412L661.656 178.399L661.649 178.393C660.239 176.983 658.622 175.801 656.798 174.848C653.401 172.952 649.49 172.004 645.066 172.004C640.562 172.004 636.494 172.991 632.859 174.966C630.5 176.225 628.436 177.849 626.667 179.838C625.02 177.757 623.015 176.054 620.653 174.729C617.493 172.912 613.898 172.004 609.869 172.004C605.602 172.004 601.77 172.912 598.373 174.729C597.826 175.009 597.297 175.31 596.786 175.631C595.919 176.177 595.105 176.782 594.344 177.446V173.189H576.212V193.948L563.06 180.796C561.174 178.729 558.967 176.984 556.439 175.559C552.093 173.11 547.077 171.885 541.388 171.885C535.542 171.885 530.288 173.189 525.626 175.796C520.965 178.403 517.252 181.998 514.487 186.58C513.569 188.119 511.424 193.741 510.82 195.428L499.538 178.754L498.831 178.047C497.506 176.789 496.007 175.722 494.335 174.848C490.937 172.952 487.026 172.004 482.602 172.004C478.099 172.004 474.03 172.991 470.396 174.966C468.036 176.225 465.972 177.849 464.204 179.838C462.556 177.757 460.551 176.054 458.189 174.729C455.029 172.912 451.434 172.004 447.405 172.004C443.139 172.004 439.307 172.912 435.91 174.729C435.362 175.009 434.833 175.31 434.323 175.631C433.455 176.177 432.641 176.782 431.88 177.446V173.189H413.749V230.784L1600.68 1417.71H1618.81V1398.99L1637.53 1417.71H1655.66V1398.99L1674.39 1417.71H1692.52V1392.45C1694.19 1393.04 1695.93 1393.49 1697.74 1393.82C1698.31 1397.66 1699.58 1401.2 1701.53 1404.44C1704.3 1409.02 1708.09 1412.62 1712.91 1415.22C1717.81 1417.75 1723.38 1419.02 1729.62 1419.02C1734.44 1419.02 1738.86 1418.19 1742.89 1416.53C1746.92 1414.87 1750.36 1412.38 1753.2 1409.06L1743.25 1399.11L1739.02 1394.88L1740.31 1394.88L1763.14 1417.71H1781.27V1398.99L1800 1417.71H1818.13V1398.99L1836.85 1417.71H1854.98V1392.45C1856.66 1393.04 1858.4 1393.49 1860.2 1393.82C1860.77 1397.66 1862.04 1401.2 1864 1404.44C1866.76 1409.02 1870.55 1412.62 1875.37 1415.22C1880.27 1417.75 1885.84 1419.02 1892.08 1419.02C1896.9 1419.02 1901.33 1418.19 1905.36 1416.53C1909.39 1414.87 1912.82 1412.38 1915.67 1409.06L1905.71 1399.11L1901.49 1394.88L1906.67 1394.87L1920.27 1408.47Z" fill="url(#paint3_linear_864_7080)"/>
<path d="M413.749 230.784V173.189H431.88V230.784H413.749ZM450.605 230.784V197.128C450.605 194.204 449.696 191.953 447.879 190.373C446.141 188.713 443.968 187.884 441.361 187.884C439.544 187.884 437.924 188.279 436.502 189.069C435.08 189.78 433.935 190.807 433.065 192.15C432.275 193.493 431.88 195.152 431.88 197.128L424.888 194.046C424.888 189.464 425.876 185.553 427.851 182.314C429.826 178.996 432.512 176.468 435.91 174.729C439.307 172.912 443.139 172.004 447.405 172.004C451.434 172.004 455.029 172.912 458.189 174.729C461.429 176.547 463.996 179.075 465.892 182.314C467.789 185.553 468.737 189.424 468.737 193.928V230.784H450.605ZM487.461 230.784V197.128C487.461 194.204 486.552 191.953 484.735 190.373C482.997 188.713 480.825 187.884 478.217 187.884C476.4 187.884 474.781 188.279 473.358 189.069C471.936 189.78 470.791 190.807 469.922 192.15C469.132 193.493 468.737 195.152 468.737 197.128L458.308 195.705C458.466 190.807 459.611 186.62 461.745 183.144C463.957 179.588 466.84 176.863 470.396 174.966C474.03 172.991 478.099 172.004 482.602 172.004C487.026 172.004 490.937 172.952 494.335 174.848C497.811 176.665 500.536 179.312 502.512 182.788C504.566 186.185 505.593 190.294 505.593 195.113V230.784H487.461Z" fill="white"/>
<path d="M542.692 232.088C536.45 232.088 530.88 230.824 525.982 228.295C521.163 225.688 517.37 222.093 514.605 217.511C511.84 212.929 510.457 207.754 510.457 201.986C510.457 196.219 511.8 191.084 514.487 186.58C517.252 181.998 520.965 178.403 525.626 175.796C530.288 173.189 535.542 171.885 541.388 171.885C547.076 171.885 552.093 173.11 556.439 175.559C560.784 178.008 564.181 181.405 566.63 185.751C569.159 190.096 570.423 195.073 570.423 200.683C570.423 201.71 570.344 202.816 570.186 204.001C570.107 205.107 569.909 206.411 569.593 207.912L519.938 208.03V195.587L561.89 195.468L554.069 200.683C553.99 197.365 553.476 194.639 552.528 192.506C551.58 190.294 550.158 188.634 548.262 187.528C546.444 186.343 544.193 185.751 541.507 185.751C538.662 185.751 536.174 186.422 534.041 187.765C531.986 189.029 530.367 190.847 529.182 193.217C528.076 195.587 527.523 198.471 527.523 201.868C527.523 205.265 528.115 208.188 529.3 210.638C530.564 213.008 532.302 214.864 534.515 216.207C536.806 217.472 539.492 218.104 542.573 218.104C545.417 218.104 547.985 217.63 550.276 216.682C552.567 215.654 554.582 214.153 556.32 212.178L566.275 222.133C563.431 225.451 559.994 227.94 555.965 229.599C551.935 231.258 547.511 232.088 542.692 232.088Z" fill="white"/>
<path d="M576.212 230.784V173.189H594.344V230.784H576.212ZM613.068 230.784V197.128C613.068 194.204 612.16 191.953 610.343 190.373C608.604 188.713 606.432 187.884 603.825 187.884C602.007 187.884 600.388 188.279 598.966 189.069C597.544 189.78 596.398 190.807 595.529 192.15C594.739 193.493 594.344 195.152 594.344 197.128L587.352 194.046C587.352 189.464 588.339 185.553 590.315 182.314C592.29 178.996 594.976 176.468 598.373 174.729C601.77 172.912 605.602 172.004 609.869 172.004C613.898 172.004 617.493 172.912 620.653 174.729C623.892 176.547 626.46 179.075 628.356 182.314C630.252 185.553 631.2 189.424 631.2 193.928V230.784H613.068ZM649.925 230.784V197.128C649.925 194.204 649.016 191.953 647.199 190.373C645.461 188.713 643.288 187.884 640.681 187.884C638.864 187.884 637.244 188.279 635.822 189.069C634.4 189.78 633.254 190.807 632.385 192.15C631.595 193.493 631.2 195.152 631.2 197.128L620.771 195.705C620.929 190.807 622.075 186.62 624.208 183.144C626.42 179.588 629.304 176.863 632.859 174.966C636.494 172.991 640.562 172.004 645.066 172.004C649.49 172.004 653.401 172.952 656.798 174.848C660.274 176.665 663 179.312 664.975 182.788C667.029 186.185 668.056 190.294 668.056 195.113V230.784H649.925Z" fill="white"/>
<path d="M705.155 232.088C698.914 232.088 693.344 230.824 688.445 228.295C683.626 225.688 679.834 222.093 677.069 217.511C674.303 212.929 672.921 207.754 672.921 201.986C672.921 196.219 674.264 191.084 676.95 186.58C679.715 181.998 683.429 178.403 688.09 175.796C692.751 173.189 698.005 171.885 703.852 171.885C709.54 171.885 714.557 173.11 718.902 175.559C723.248 178.008 726.645 181.405 729.094 185.751C731.622 190.096 732.886 195.073 732.886 200.683C732.886 201.71 732.807 202.816 732.649 204.001C732.57 205.107 732.373 206.411 732.057 207.912L682.402 208.03V195.587L724.354 195.468L716.532 200.683C716.453 197.365 715.94 194.639 714.991 192.506C714.043 190.294 712.621 188.634 710.725 187.528C708.908 186.343 706.656 185.751 703.97 185.751C701.126 185.751 698.637 186.422 696.504 187.765C694.45 189.029 692.83 190.847 691.645 193.217C690.539 195.587 689.986 198.471 689.986 201.868C689.986 205.265 690.579 208.188 691.764 210.638C693.028 213.008 694.766 214.864 696.978 216.207C699.269 217.472 701.955 218.104 705.037 218.104C707.881 218.104 710.449 217.63 712.74 216.682C715.031 215.654 717.046 214.153 718.784 212.178L728.738 222.133C725.894 225.451 722.457 227.94 718.428 229.599C714.399 231.258 709.975 232.088 705.155 232.088Z" fill="white"/>
<path d="M759.652 232.206C756.254 232.206 752.897 231.772 749.578 230.903C746.339 230.034 743.297 228.809 740.453 227.229C737.688 225.57 735.318 223.674 733.343 221.54L743.653 211.112C745.549 213.166 747.801 214.785 750.408 215.97C753.015 217.077 755.859 217.63 758.941 217.63C761.074 217.63 762.693 217.314 763.799 216.682C764.985 216.049 765.577 215.18 765.577 214.074C765.577 212.652 764.866 211.586 763.444 210.875C762.101 210.085 760.363 209.413 758.23 208.86C756.096 208.228 753.845 207.556 751.475 206.845C749.104 206.134 746.853 205.147 744.72 203.883C742.586 202.618 740.848 200.88 739.505 198.668C738.162 196.377 737.491 193.493 737.491 190.017C737.491 186.304 738.439 183.104 740.335 180.418C742.231 177.653 744.917 175.48 748.393 173.9C751.87 172.32 755.938 171.53 760.6 171.53C765.498 171.53 770.001 172.399 774.11 174.137C778.297 175.796 781.694 178.285 784.302 181.603L773.991 192.032C772.174 189.899 770.12 188.397 767.829 187.528C765.617 186.659 763.444 186.225 761.311 186.225C759.257 186.225 757.716 186.541 756.689 187.173C755.662 187.726 755.148 188.555 755.148 189.661C755.148 190.847 755.82 191.795 757.163 192.506C758.506 193.217 760.244 193.849 762.377 194.402C764.511 194.955 766.762 195.626 769.132 196.416C771.503 197.207 773.754 198.273 775.887 199.616C778.021 200.959 779.759 202.776 781.102 205.068C782.445 207.28 783.116 210.203 783.116 213.837C783.116 219.447 780.983 223.911 776.717 227.229C772.53 230.547 766.841 232.206 759.652 232.206Z" fill="white"/>
<path d="M596.433 383.001H504.935V418.035H551.8C550.593 420.31 549.2 422.501 547.621 424.585C540.503 433.97 530.147 440.529 518.46 443.053C506.773 445.578 494.546 443.896 484.03 438.32C473.513 432.743 465.422 423.648 461.247 412.711C457.071 401.773 457.093 389.734 461.309 378.811C465.524 367.889 473.652 358.821 484.187 353.282C494.721 347.742 506.955 346.103 518.635 348.668C523.849 349.814 528.798 351.764 533.305 354.409C538.891 357.686 543.807 362.031 547.723 367.238L579.987 344.162C577.872 341.35 575.596 338.678 573.175 336.154C566.045 328.723 557.655 322.584 548.405 317.99C541.805 314.712 534.763 312.221 527.43 310.61C506.332 305.976 484.227 308.936 465.188 318.945C446.154 328.955 431.477 345.338 423.859 365.071C416.242 384.805 416.202 406.559 423.746 426.32C428.053 437.601 434.666 447.798 443.084 456.347C443.404 456.672 443.727 456.995 444.053 457.316C450.157 463.326 457.169 468.485 464.908 472.59C483.906 482.665 506 485.703 527.117 481.142C548.234 476.581 566.944 464.729 579.798 447.774C584.268 441.88 587.922 435.508 590.719 428.819C594.895 418.831 597.336 406.374 597.336 397.278C597.336 388.182 596.433 383.001 596.433 383.001Z" fill="url(#paint4_linear_864_7080)"/>
<path d="M785.837 383.001H694.34V418.035H741.204C739.997 420.31 738.604 422.501 737.025 424.585C729.907 433.97 719.551 440.529 707.864 443.053C696.177 445.578 683.951 443.896 673.434 438.32C662.918 432.743 654.826 423.648 650.651 412.711C646.476 401.773 646.498 389.734 650.713 378.811C654.928 367.889 663.056 358.821 673.591 353.282C684.126 347.742 696.36 346.103 708.039 348.668C713.254 349.814 718.202 351.764 722.709 354.409C728.296 357.686 733.211 362.031 737.128 367.238L769.392 344.162C767.277 341.35 765.001 338.678 762.579 336.154C755.449 328.723 747.059 322.584 737.809 317.99C731.209 314.712 724.168 312.221 716.835 310.61C695.736 305.976 673.631 308.936 654.593 318.945C635.558 328.955 620.881 345.338 613.264 365.071C612.195 367.84 611.276 370.648 610.505 373.485C605.784 390.869 606.664 409.331 613.151 426.32C620.695 446.08 635.314 462.514 654.312 472.59C673.31 482.665 695.404 485.703 716.521 481.142C737.638 476.581 756.348 464.729 769.202 447.774C773.673 441.88 777.326 435.508 780.123 428.819C784.299 418.831 786.74 406.374 786.74 397.278C786.74 388.182 785.837 383.001 785.837 383.001Z" fill="url(#paint5_linear_864_7080)"/>
<path d="M1595.21 1381.78H1503.72V1416.82H1550.58C1549.37 1419.09 1547.98 1421.28 1546.4 1423.37C1539.28 1432.75 1528.93 1439.31 1517.24 1441.83C1505.55 1444.36 1493.33 1442.68 1482.81 1437.1C1472.29 1431.52 1464.2 1422.43 1460.03 1411.49C1455.85 1400.55 1455.87 1388.51 1460.09 1377.59C1464.3 1366.67 1472.43 1357.6 1482.97 1352.06C1493.5 1346.52 1505.74 1344.88 1517.42 1347.45C1522.63 1348.59 1527.58 1350.54 1532.09 1353.19C1537.67 1356.47 1542.59 1360.81 1546.5 1366.02L1578.77 1342.94C1570.42 1331.85 1559.58 1322.92 1547.19 1316.77C1540.59 1313.49 1533.54 1311 1526.21 1309.39C1505.11 1304.76 1483.01 1307.72 1463.97 1317.73C1444.93 1327.74 1430.26 1344.12 1422.64 1363.85C1415.02 1383.59 1414.98 1405.34 1422.53 1425.1C1426.83 1436.38 1433.45 1446.58 1441.86 1455.13C1448.19 1461.55 1455.54 1467.05 1463.69 1471.37C1482.69 1481.45 1504.78 1484.48 1525.9 1479.92C1547.01 1475.36 1565.72 1463.51 1578.58 1446.55C1583.05 1440.66 1586.7 1434.29 1589.5 1427.6C1590.9 1424.25 1592.1 1420.63 1593.09 1416.95C1595.04 1409.64 1596.12 1402.11 1596.12 1396.06C1596.12 1386.96 1595.21 1381.78 1595.21 1381.78Z" fill="url(#paint6_linear_864_7080)"/>
<path d="M1784.62 1381.78H1693.12V1416.82H1739.98C1738.78 1419.09 1737.38 1421.28 1735.81 1423.37C1728.69 1432.75 1718.33 1439.31 1706.64 1441.83C1694.96 1444.36 1682.73 1442.68 1672.21 1437.1C1661.7 1431.52 1653.61 1422.43 1649.43 1411.49C1645.26 1400.55 1645.28 1388.51 1649.49 1377.59C1653.71 1366.67 1661.84 1357.6 1672.37 1352.06C1682.91 1346.52 1695.14 1344.88 1706.82 1347.45C1712.03 1348.59 1716.98 1350.54 1721.49 1353.19C1727.08 1356.47 1731.99 1360.81 1735.91 1366.02L1755.12 1352.28L1768.17 1342.94C1765.32 1339.15 1762.18 1335.61 1758.78 1332.35C1752.23 1326.07 1744.75 1320.82 1736.59 1316.77C1729.99 1313.49 1722.95 1311 1715.62 1309.39C1694.52 1304.76 1672.41 1307.72 1653.37 1317.73C1634.34 1327.74 1619.66 1344.12 1612.04 1363.85C1604.43 1383.59 1604.39 1405.34 1611.93 1425.1C1616.24 1436.38 1622.85 1446.58 1631.27 1455.13C1637.6 1461.55 1644.94 1467.05 1653.09 1471.37C1672.09 1481.45 1694.18 1484.48 1715.3 1479.92C1736.42 1475.36 1755.13 1463.51 1767.98 1446.55C1772.45 1440.66 1776.11 1434.29 1778.9 1427.6C1783.08 1417.61 1785.52 1405.15 1785.52 1396.06C1785.52 1386.96 1784.62 1381.78 1784.62 1381.78Z" fill="url(#paint7_linear_864_7080)"/>
<path d="M504.935 383.001H596.433C596.433 383.001 597.336 388.182 597.336 397.278C597.336 406.374 594.895 418.831 590.719 428.819C587.922 435.508 584.268 441.88 579.798 447.774C566.944 464.729 548.234 476.581 527.117 481.142C506 485.703 483.906 482.665 464.908 472.59C457.169 468.485 450.157 463.326 444.053 457.316L1441.86 1455.13C1433.45 1446.58 1426.83 1436.38 1422.53 1425.1C1414.98 1405.34 1415.02 1383.59 1422.64 1363.85C1430.26 1344.12 1444.93 1327.74 1463.97 1317.73C1483.01 1307.72 1505.11 1304.76 1526.21 1309.39C1533.54 1311 1540.59 1313.49 1547.19 1316.77C1559.58 1322.92 1570.42 1331.85 1578.77 1342.94L1546.5 1366.02C1542.59 1360.81 1537.67 1356.47 1532.09 1353.19C1527.58 1350.54 1522.63 1348.59 1517.42 1347.45C1505.74 1344.88 1493.5 1346.52 1482.97 1352.06C1472.43 1357.6 1464.3 1366.67 1460.09 1377.59C1455.87 1388.51 1455.85 1400.55 1460.03 1411.49C1464.2 1422.43 1472.29 1431.52 1482.81 1437.1C1493.33 1442.68 1505.55 1444.36 1517.24 1441.83C1528.93 1439.31 1539.28 1432.75 1546.4 1423.37C1547.98 1421.28 1549.37 1419.09 1550.58 1416.82H1503.72V1381.78H1595.21C1595.21 1381.78 1596.12 1386.96 1596.12 1396.06C1596.12 1402.11 1595.04 1409.64 1593.09 1416.95L1631.27 1455.13C1622.85 1446.58 1616.24 1436.38 1611.93 1425.1C1604.39 1405.34 1604.43 1383.59 1612.04 1363.85C1619.66 1344.12 1634.34 1327.74 1653.37 1317.73C1672.41 1307.72 1694.52 1304.76 1715.62 1309.39C1722.95 1311 1729.99 1313.49 1736.59 1316.77C1744.75 1320.82 1752.23 1326.07 1758.78 1332.35L762.579 336.154C765.001 338.678 767.277 341.35 769.392 344.162L737.128 367.238C733.211 362.031 728.296 357.686 722.709 354.409C718.202 351.764 713.254 349.814 708.039 348.668C696.36 346.103 684.126 347.742 673.591 353.282C663.056 358.821 654.928 367.889 650.713 378.811C646.498 389.734 646.476 401.773 650.651 412.711C654.826 423.648 662.918 432.743 673.434 438.32C683.951 443.896 696.177 445.578 707.864 443.053C719.551 440.529 729.907 433.97 737.025 424.585C738.604 422.501 739.997 420.31 741.204 418.035H694.34V383.001H785.837C785.837 383.001 786.74 388.182 786.74 397.278C786.74 406.374 784.299 418.831 780.123 428.819C777.326 435.508 773.673 441.88 769.202 447.774C756.348 464.729 737.638 476.581 716.521 481.142C695.404 485.703 673.31 482.665 654.312 472.59C635.314 462.514 620.695 446.08 613.151 426.32C606.664 409.331 605.784 390.869 610.505 373.485L573.175 336.154C575.596 338.678 577.872 341.35 579.987 344.162L547.723 367.238C543.807 362.031 538.891 357.686 533.305 354.409C528.798 351.764 523.849 349.814 518.635 348.668C506.955 346.103 494.721 347.742 484.187 353.282C473.652 358.821 465.524 367.889 461.309 378.811C457.093 389.734 457.071 401.773 461.247 412.711C465.422 423.648 473.513 432.743 484.03 438.32C494.546 443.896 506.773 445.578 518.46 443.053C530.147 440.529 540.503 433.97 547.621 424.585C549.2 422.501 550.593 420.31 551.8 418.035H504.935V383.001Z" fill="url(#paint8_linear_864_7080)"/>
<path d="M1693.12 1381.78H1784.62L1755.12 1352.28L1735.91 1366.02C1731.99 1360.81 1727.08 1356.47 1721.49 1353.19C1716.98 1350.54 1712.03 1348.59 1706.82 1347.45C1695.14 1344.88 1682.91 1346.52 1672.37 1352.06C1661.84 1357.6 1653.71 1366.67 1649.49 1377.59C1645.28 1388.51 1645.26 1400.55 1649.43 1411.49C1653.61 1422.43 1661.7 1431.52 1672.21 1437.1C1682.73 1442.68 1694.96 1444.36 1706.64 1441.83C1718.33 1439.31 1728.69 1432.75 1735.81 1423.37C1737.38 1421.28 1738.78 1419.09 1739.98 1416.82H1693.12V1381.78Z" fill="url(#paint9_linear_864_7080)"/>
<path d="M504.935 383.001H596.433C596.433 383.001 597.336 388.182 597.336 397.278C597.336 406.374 594.895 418.831 590.719 428.819C587.922 435.508 584.268 441.88 579.798 447.774C566.944 464.729 548.234 476.581 527.117 481.142C506 485.703 483.906 482.665 464.908 472.59C445.91 462.514 431.291 446.08 423.746 426.32C416.202 406.559 416.242 384.805 423.859 365.071C431.477 345.338 446.154 328.955 465.188 318.945C484.227 308.936 506.332 305.976 527.43 310.61C534.763 312.221 541.805 314.712 548.405 317.99C560.796 324.143 571.644 333.071 579.987 344.162L547.723 367.238C543.807 362.031 538.891 357.686 533.305 354.409C528.798 351.764 523.849 349.814 518.635 348.668C506.955 346.103 494.721 347.742 484.187 353.282C473.652 358.821 465.524 367.889 461.309 378.811C457.093 389.734 457.071 401.773 461.247 412.711C465.422 423.648 473.513 432.743 484.03 438.32C494.546 443.897 506.773 445.578 518.46 443.054C530.147 440.529 540.503 433.97 547.621 424.585C549.2 422.502 550.593 420.31 551.8 418.035H504.935V383.001Z" fill="white"/>
<path d="M694.34 383.001H785.838C785.838 383.001 786.741 388.182 786.741 397.278C786.741 406.374 784.3 418.831 780.124 428.819C777.327 435.508 773.673 441.88 769.203 447.774C756.349 464.729 737.639 476.581 716.522 481.142C695.405 485.703 673.311 482.665 654.313 472.59C635.315 462.514 620.696 446.08 613.151 426.32C605.607 406.559 605.647 384.805 613.264 365.071C620.882 345.338 635.559 328.955 654.594 318.945C673.632 308.936 695.737 305.976 716.835 310.61C724.169 312.221 731.21 314.712 737.81 317.99C750.201 324.143 761.049 333.071 769.392 344.162L737.128 367.238C733.212 362.031 728.296 357.686 722.71 354.409C718.203 351.764 713.255 349.814 708.04 348.668C696.36 346.103 684.127 347.742 673.592 353.282C663.057 358.821 654.929 367.889 650.714 378.811C646.498 389.734 646.477 401.773 650.652 412.711C654.827 423.648 662.919 432.743 673.435 438.32C683.951 443.897 696.178 445.578 707.865 443.054C719.552 440.529 729.908 433.97 737.026 424.585C738.605 422.502 739.998 420.31 741.205 418.035H694.34V383.001Z" fill="white"/>
</g>
<defs>
<linearGradient id="paint0_linear_864_7080" x1="413.749" y1="171.53" x2="813.043" y2="581.855" gradientUnits="userSpaceOnUse">
<stop stop-color="#FB923C"/>
<stop offset="0.5" stop-color="#EC4899"/>
<stop offset="1" stop-color="#9333EA"/>
</linearGradient>
<linearGradient id="paint1_linear_864_7080" x1="413.749" y1="171.53" x2="813.043" y2="581.855" gradientUnits="userSpaceOnUse">
<stop stop-color="#FB923C"/>
<stop offset="0.5" stop-color="#EC4899"/>
<stop offset="1" stop-color="#9333EA"/>
</linearGradient>
<linearGradient id="paint2_linear_864_7080" x1="413.749" y1="171.53" x2="813.043" y2="581.855" gradientUnits="userSpaceOnUse">
<stop stop-color="#FB923C"/>
<stop offset="0.5" stop-color="#EC4899"/>
<stop offset="1" stop-color="#9333EA"/>
</linearGradient>
<linearGradient id="paint3_linear_864_7080" x1="413.749" y1="171.53" x2="813.043" y2="581.855" gradientUnits="userSpaceOnUse">
<stop stop-color="#FB923C"/>
<stop offset="0.5" stop-color="#EC4899"/>
<stop offset="1" stop-color="#9333EA"/>
</linearGradient>
<linearGradient id="paint4_linear_864_7080" x1="438.391" y1="328.748" x2="897.01" y2="755.207" gradientUnits="userSpaceOnUse">
<stop stop-color="#FB923C"/>
<stop offset="0.5" stop-color="#EC4899"/>
<stop offset="1" stop-color="#9333EA"/>
</linearGradient>
<linearGradient id="paint5_linear_864_7080" x1="438.391" y1="328.748" x2="897.01" y2="755.207" gradientUnits="userSpaceOnUse">
<stop stop-color="#FB923C"/>
<stop offset="0.5" stop-color="#EC4899"/>
<stop offset="1" stop-color="#9333EA"/>
</linearGradient>
<linearGradient id="paint6_linear_864_7080" x1="438.391" y1="328.748" x2="897.01" y2="755.207" gradientUnits="userSpaceOnUse">
<stop stop-color="#FB923C"/>
<stop offset="0.5" stop-color="#EC4899"/>
<stop offset="1" stop-color="#9333EA"/>
</linearGradient>
<linearGradient id="paint7_linear_864_7080" x1="438.391" y1="328.748" x2="897.01" y2="755.207" gradientUnits="userSpaceOnUse">
<stop stop-color="#FB923C"/>
<stop offset="0.5" stop-color="#EC4899"/>
<stop offset="1" stop-color="#9333EA"/>
</linearGradient>
<linearGradient id="paint8_linear_864_7080" x1="438.391" y1="328.748" x2="897.01" y2="755.207" gradientUnits="userSpaceOnUse">
<stop stop-color="#FB923C"/>
<stop offset="0.5" stop-color="#EC4899"/>
<stop offset="1" stop-color="#9333EA"/>
</linearGradient>
<linearGradient id="paint9_linear_864_7080" x1="438.391" y1="328.748" x2="897.01" y2="755.207" gradientUnits="userSpaceOnUse">
<stop stop-color="#FB923C"/>
<stop offset="0.5" stop-color="#EC4899"/>
<stop offset="1" stop-color="#9333EA"/>
</linearGradient>
<clipPath id="clip0_864_7080">
<rect width="1200" height="630" fill="white"/>
</clipPath>
</defs>
</svg>
