<svg width="63" height="12" viewBox="0 0 63 12" fill="none" xmlns="http://www.w3.org/2000/svg">
<path d="M0.264051 9.38135V0.981347H1.22405L4.71605 6.72935H4.09205L7.58405 0.981347H8.54405V9.38135H7.16405V3.40535L7.47605 3.48935L4.88405 7.74935H3.92405L1.33205 3.48935L1.64405 3.40535V9.38135H0.264051ZM12.8616 9.50135C12.2856 9.50135 11.7656 9.37335 11.3016 9.11735C10.8456 8.85335 10.4816 8.49335 10.2096 8.03735C9.94561 7.58135 9.81361 7.06935 9.81361 6.50135C9.81361 5.93335 9.94561 5.42535 10.2096 4.97735C10.4736 4.52135 10.8296 4.16135 11.2776 3.89735C11.7336 3.63335 12.2376 3.50135 12.7896 3.50135C13.3256 3.50135 13.7976 3.62535 14.2056 3.87335C14.6216 4.12135 14.9456 4.46135 15.1776 4.89335C15.4176 5.32535 15.5376 5.81735 15.5376 6.36935C15.5376 6.46535 15.5296 6.56535 15.5136 6.66935C15.5056 6.76535 15.4896 6.87335 15.4656 6.99335H10.7376V5.91335H14.7816L14.2896 6.34535C14.2736 5.99335 14.2056 5.69735 14.0856 5.45735C13.9656 5.21735 13.7936 5.03335 13.5696 4.90535C13.3536 4.77735 13.0856 4.71335 12.7656 4.71335C12.4296 4.71335 12.1376 4.78535 11.8896 4.92935C11.6416 5.07335 11.4496 5.27735 11.3136 5.54135C11.1776 5.79735 11.1096 6.10535 11.1096 6.46535C11.1096 6.82535 11.1816 7.14135 11.3256 7.41335C11.4696 7.68535 11.6736 7.89735 11.9376 8.04935C12.2016 8.19335 12.5056 8.26535 12.8496 8.26535C13.1456 8.26535 13.4176 8.21335 13.6656 8.10935C13.9216 8.00535 14.1376 7.85335 14.3136 7.65335L15.1536 8.50535C14.8736 8.83335 14.5336 9.08135 14.1336 9.24935C13.7336 9.41735 13.3096 9.50135 12.8616 9.50135ZM16.5958 9.38135V3.62135H17.9158V9.38135H16.5958ZM20.4238 9.38135V5.94935C20.4238 5.56535 20.3038 5.26935 20.0638 5.06135C19.8238 4.84535 19.5278 4.73735 19.1758 4.73735C18.9358 4.73735 18.7198 4.78535 18.5278 4.88135C18.3438 4.97735 18.1958 5.11735 18.0838 5.30135C17.9718 5.47735 17.9158 5.69335 17.9158 5.94935L17.3998 5.66135C17.3998 5.22135 17.4958 4.84135 17.6878 4.52135C17.8798 4.20135 18.1398 3.95335 18.4678 3.77735C18.7958 3.59335 19.1638 3.50135 19.5718 3.50135C19.9798 3.50135 20.3478 3.58935 20.6758 3.76535C21.0038 3.94135 21.2638 4.18935 21.4558 4.50935C21.6478 4.82935 21.7438 5.21335 21.7438 5.66135V9.38135H20.4238ZM24.2518 9.38135V5.94935C24.2518 5.56535 24.1318 5.26935 23.8918 5.06135C23.6518 4.84535 23.3558 4.73735 23.0038 4.73735C22.7718 4.73735 22.5598 4.78535 22.3678 4.88135C22.1758 4.97735 22.0238 5.11735 21.9118 5.30135C21.7998 5.47735 21.7438 5.69335 21.7438 5.94935L20.9998 5.66135C21.0398 5.22135 21.1678 4.84135 21.3838 4.52135C21.5998 4.20135 21.8758 3.95335 22.2118 3.77735C22.5558 3.59335 22.9318 3.50135 23.3398 3.50135C23.7558 3.50135 24.1318 3.58935 24.4678 3.76535C24.8038 3.94135 25.0718 4.18935 25.2718 4.50935C25.4718 4.82935 25.5718 5.21335 25.5718 5.66135V9.38135H24.2518ZM29.6077 9.50135C29.0317 9.50135 28.5117 9.37335 28.0477 9.11735C27.5917 8.85335 27.2277 8.49335 26.9557 8.03735C26.6917 7.58135 26.5597 7.06935 26.5597 6.50135C26.5597 5.93335 26.6917 5.42535 26.9557 4.97735C27.2197 4.52135 27.5757 4.16135 28.0237 3.89735C28.4797 3.63335 28.9837 3.50135 29.5357 3.50135C30.0717 3.50135 30.5437 3.62535 30.9517 3.87335C31.3677 4.12135 31.6917 4.46135 31.9237 4.89335C32.1637 5.32535 32.2837 5.81735 32.2837 6.36935C32.2837 6.46535 32.2757 6.56535 32.2597 6.66935C32.2517 6.76535 32.2357 6.87335 32.2117 6.99335H27.4837V5.91335H31.5277L31.0357 6.34535C31.0197 5.99335 30.9517 5.69735 30.8317 5.45735C30.7117 5.21735 30.5397 5.03335 30.3157 4.90535C30.0997 4.77735 29.8317 4.71335 29.5117 4.71335C29.1757 4.71335 28.8837 4.78535 28.6357 4.92935C28.3877 5.07335 28.1957 5.27735 28.0597 5.54135C27.9237 5.79735 27.8557 6.10535 27.8557 6.46535C27.8557 6.82535 27.9277 7.14135 28.0717 7.41335C28.2157 7.68535 28.4197 7.89735 28.6837 8.04935C28.9477 8.19335 29.2517 8.26535 29.5957 8.26535C29.8917 8.26535 30.1637 8.21335 30.4117 8.10935C30.6677 8.00535 30.8837 7.85335 31.0597 7.65335L31.8997 8.50535C31.6197 8.83335 31.2797 9.08135 30.8797 9.24935C30.4797 9.41735 30.0557 9.50135 29.6077 9.50135ZM35.2259 9.50135C34.9059 9.50135 34.5979 9.46135 34.3019 9.38135C34.0059 9.29335 33.7339 9.17335 33.4859 9.02135C33.2379 8.86135 33.0219 8.66935 32.8379 8.44535L33.6779 7.60535C33.8779 7.83735 34.1059 8.01335 34.3619 8.13335C34.6259 8.24535 34.9219 8.30135 35.2499 8.30135C35.5459 8.30135 35.7699 8.25735 35.9219 8.16935C36.0739 8.08135 36.1499 7.95335 36.1499 7.78535C36.1499 7.60935 36.0779 7.47335 35.9339 7.37735C35.7899 7.28135 35.6019 7.20135 35.3699 7.13735C35.1459 7.06535 34.9059 6.99335 34.6499 6.92135C34.4019 6.84935 34.1619 6.75335 33.9299 6.63335C33.7059 6.50535 33.5219 6.33335 33.3779 6.11735C33.2339 5.90135 33.1619 5.62135 33.1619 5.27735C33.1619 4.90935 33.2459 4.59335 33.4139 4.32935C33.5899 4.06535 33.8339 3.86135 34.1459 3.71735C34.4659 3.57335 34.8459 3.50135 35.2859 3.50135C35.7499 3.50135 36.1579 3.58535 36.5099 3.75335C36.8699 3.91335 37.1699 4.15735 37.4099 4.48535L36.5699 5.32535C36.4019 5.11735 36.2099 4.96135 35.9939 4.85735C35.7779 4.75335 35.5299 4.70135 35.2499 4.70135C34.9859 4.70135 34.7819 4.74135 34.6379 4.82135C34.4939 4.90135 34.4219 5.01735 34.4219 5.16935C34.4219 5.32935 34.4939 5.45335 34.6379 5.54135C34.7819 5.62935 34.9659 5.70535 35.1899 5.76935C35.4219 5.83335 35.6619 5.90535 35.9099 5.98535C36.1659 6.05735 36.4059 6.16135 36.6299 6.29735C36.8619 6.42535 37.0499 6.60135 37.1939 6.82535C37.3379 7.04135 37.4099 7.32535 37.4099 7.67735C37.4099 8.23735 37.2139 8.68135 36.8219 9.00935C36.4299 9.33735 35.8979 9.50135 35.2259 9.50135ZM39.5061 9.50135C39.2501 9.50135 39.0381 9.41735 38.8701 9.24935C38.7101 9.07335 38.6301 8.86135 38.6301 8.61335C38.6301 8.35735 38.7101 8.14535 38.8701 7.97735C39.0381 7.80935 39.2501 7.72535 39.5061 7.72535C39.7621 7.72535 39.9701 7.80935 40.1301 7.97735C40.2981 8.14535 40.3821 8.35735 40.3821 8.61335C40.3821 8.86135 40.2981 9.07335 40.1301 9.24935C39.9701 9.41735 39.7621 9.50135 39.5061 9.50135ZM44.1794 11.9013C43.5714 11.9013 43.0394 11.7893 42.5834 11.5653C42.1274 11.3493 41.7594 11.0413 41.4794 10.6413L42.3434 9.77735C42.5754 10.0653 42.8394 10.2813 43.1354 10.4253C43.4314 10.5693 43.7874 10.6413 44.2034 10.6413C44.7234 10.6413 45.1354 10.5053 45.4394 10.2333C45.7434 9.96935 45.8954 9.60535 45.8954 9.14135V7.72535L46.1234 6.45335L45.8954 5.16935V3.62135H47.2154V9.14135C47.2154 9.69335 47.0874 10.1733 46.8314 10.5813C46.5754 10.9973 46.2194 11.3213 45.7634 11.5533C45.3074 11.7853 44.7794 11.9013 44.1794 11.9013ZM44.1194 9.26135C43.6074 9.26135 43.1434 9.13735 42.7274 8.88935C42.3194 8.63335 41.9954 8.28535 41.7554 7.84535C41.5234 7.40535 41.4074 6.91335 41.4074 6.36935C41.4074 5.82535 41.5234 5.33735 41.7554 4.90535C41.9954 4.47335 42.3194 4.13335 42.7274 3.88535C43.1434 3.62935 43.6074 3.50135 44.1194 3.50135C44.5754 3.50135 44.9754 3.59335 45.3194 3.77735C45.6634 3.96135 45.9314 4.21735 46.1234 4.54535C46.3154 4.86535 46.4114 5.24135 46.4114 5.67335V7.08935C46.4114 7.51335 46.3114 7.88935 46.1114 8.21735C45.9194 8.54535 45.6514 8.80135 45.3074 8.98535C44.9634 9.16935 44.5674 9.26135 44.1194 9.26135ZM44.3834 8.01335C44.7034 8.01335 44.9834 7.94535 45.2234 7.80935C45.4634 7.67335 45.6474 7.48535 45.7754 7.24535C45.9114 6.99735 45.9794 6.70935 45.9794 6.38135C45.9794 6.05335 45.9114 5.76935 45.7754 5.52935C45.6474 5.28135 45.4634 5.08935 45.2234 4.95335C44.9834 4.81735 44.7034 4.74935 44.3834 4.74935C44.0634 4.74935 43.7794 4.81735 43.5314 4.95335C43.2914 5.08935 43.1034 5.28135 42.9674 5.52935C42.8314 5.76935 42.7634 6.05335 42.7634 6.38135C42.7634 6.70135 42.8314 6.98535 42.9674 7.23335C43.1034 7.48135 43.2914 7.67335 43.5314 7.80935C43.7794 7.94535 44.0634 8.01335 44.3834 8.01335ZM51.0817 11.9013C50.4737 11.9013 49.9417 11.7893 49.4857 11.5653C49.0297 11.3493 48.6617 11.0413 48.3817 10.6413L49.2457 9.77735C49.4777 10.0653 49.7417 10.2813 50.0377 10.4253C50.3337 10.5693 50.6897 10.6413 51.1057 10.6413C51.6257 10.6413 52.0377 10.5053 52.3417 10.2333C52.6457 9.96935 52.7977 9.60535 52.7977 9.14135V7.72535L53.0257 6.45335L52.7977 5.16935V3.62135H54.1177V9.14135C54.1177 9.69335 53.9897 10.1733 53.7337 10.5813C53.4777 10.9973 53.1217 11.3213 52.6657 11.5533C52.2097 11.7853 51.6817 11.9013 51.0817 11.9013ZM51.0217 9.26135C50.5097 9.26135 50.0457 9.13735 49.6297 8.88935C49.2217 8.63335 48.8977 8.28535 48.6577 7.84535C48.4257 7.40535 48.3097 6.91335 48.3097 6.36935C48.3097 5.82535 48.4257 5.33735 48.6577 4.90535C48.8977 4.47335 49.2217 4.13335 49.6297 3.88535C50.0457 3.62935 50.5097 3.50135 51.0217 3.50135C51.4777 3.50135 51.8777 3.59335 52.2217 3.77735C52.5657 3.96135 52.8337 4.21735 53.0257 4.54535C53.2177 4.86535 53.3137 5.24135 53.3137 5.67335V7.08935C53.3137 7.51335 53.2137 7.88935 53.0137 8.21735C52.8217 8.54535 52.5537 8.80135 52.2097 8.98535C51.8657 9.16935 51.4697 9.26135 51.0217 9.26135ZM51.2857 8.01335C51.6057 8.01335 51.8857 7.94535 52.1257 7.80935C52.3657 7.67335 52.5497 7.48535 52.6777 7.24535C52.8137 6.99735 52.8817 6.70935 52.8817 6.38135C52.8817 6.05335 52.8137 5.76935 52.6777 5.52935C52.5497 5.28135 52.3657 5.08935 52.1257 4.95335C51.8857 4.81735 51.6057 4.74935 51.2857 4.74935C50.9657 4.74935 50.6817 4.81735 50.4337 4.95335C50.1937 5.08935 50.0057 5.28135 49.8697 5.52935C49.7337 5.76935 49.6657 6.05335 49.6657 6.38135C49.6657 6.70135 49.7337 6.98535 49.8697 7.23335C50.0057 7.48135 50.1937 7.67335 50.4337 7.80935C50.6817 7.94535 50.9657 8.01335 51.2857 8.01335ZM56.5081 5.55335V1.47335H57.2041V5.55335H56.5081ZM55.1401 1.97735V1.35335H58.5721V1.97735H55.1401ZM58.8241 5.55335V1.35335H59.3041L61.0681 4.22135H60.7441L62.5081 1.35335H62.9881V5.55335H62.2921V2.56535L62.4481 2.60135L61.1521 4.73735H60.6601L59.3641 2.60135L59.5201 2.56535V5.55335H58.8241Z" fill="white" fill-opacity="0.6"/>
</svg>
