<svg width="706" height="700" viewBox="0 0 706 700" fill="none" xmlns="http://www.w3.org/2000/svg">
<path fill-rule="evenodd" clip-rule="evenodd" d="M85.6854 7.09366L86.3965 7.80479C86.1653 7.56133 85.9282 7.32429 85.6854 7.09366Z" fill="url(#paint0_linear_873_1550)"/>
<path d="M18.3071 2.20413V6.48826C19.0728 5.81994 19.8921 5.21122 20.7651 4.66212L18.3071 2.20413Z" fill="url(#paint1_linear_873_1550)"/>
<path d="M1516.2 1245.37C1518.18 1247.51 1520.57 1249.42 1523.35 1251.09C1526.21 1252.68 1529.28 1253.91 1532.53 1254.79C1535.87 1255.66 1539.25 1256.1 1542.67 1256.1C1549.91 1256.1 1555.63 1254.43 1559.85 1251.09C1564.14 1247.75 1566.29 1243.26 1566.29 1237.61C1566.29 1233.96 1565.61 1231.02 1564.26 1228.79C1563.18 1226.94 1561.84 1225.4 1560.24 1224.16L1545.99 1209.91C1547.6 1210.08 1549.24 1210.49 1550.9 1211.14C1553.21 1212.01 1555.27 1213.52 1557.1 1215.67L1567.48 1205.17L1563.56 1201.26L372.977 10.672C370.353 7.33253 366.935 4.82797 362.72 3.15825C358.586 1.40903 354.054 0.534424 349.124 0.534424C344.433 0.534424 340.338 1.32952 336.84 2.91972C333.341 4.50993 330.638 6.69645 328.73 9.4793C326.822 12.1826 325.868 15.4028 325.868 19.1398C325.868 20.1606 325.925 21.1306 326.04 22.0498L313.47 9.4793C311.651 7.56498 309.548 5.93504 307.161 4.58943C302.788 2.12462 297.739 0.892218 292.014 0.892218C286.13 0.892218 280.843 2.20413 276.152 4.82797C271.461 7.4518 267.724 11.0695 264.941 15.6811C264.018 17.2279 263.253 18.8489 262.645 20.5439L249.549 7.44769L249.542 7.44107C248.123 6.02225 246.495 4.83317 244.66 3.87384C241.241 1.9656 237.305 1.01148 232.853 1.01148C228.321 1.01148 224.226 2.00536 220.569 3.99311C218.194 5.25969 216.117 6.89407 214.337 8.89626C212.679 6.80191 210.661 5.08801 208.284 3.75458C205.104 1.92585 201.486 1.01148 197.431 1.01148C193.138 1.01148 189.281 1.92585 185.862 3.75458C185.312 4.03645 184.779 4.33896 184.265 4.66212C183.392 5.21122 182.573 5.81993 181.807 6.48825V2.20413H163.56V23.0961L150.324 9.85972C148.425 7.78007 146.204 6.02331 143.66 4.58943C139.287 2.12462 134.238 0.892218 128.514 0.892218C122.63 0.892218 117.342 2.20413 112.651 4.82797C107.96 7.4518 104.223 11.0695 101.44 15.6811C100.517 17.23 98.3584 22.8874 97.7503 24.5848L86.3965 7.80479L85.6854 7.09366C84.3518 5.82708 82.8432 4.75381 81.1598 3.87384C77.7409 1.9656 73.8052 1.01148 69.3526 1.01148C64.8205 1.01148 60.7257 2.00536 57.0683 3.99311C54.6934 5.25969 52.6163 6.89407 50.837 8.89626C49.1786 6.80191 47.161 5.08801 44.784 3.75458C41.6036 1.92585 37.9859 1.01148 33.9309 1.01148C29.6373 1.01148 25.7811 1.92585 22.3621 3.75458C21.8112 4.03645 21.2789 4.33896 20.7651 4.66212C19.8921 5.21122 19.0728 5.81994 18.3071 6.48826V2.20413H0.0595703V60.167L1194.56 1254.67H1212.81V1235.83L1231.65 1254.67H1249.9V1235.83L1268.74 1254.67H1286.99V1229.25C1288.67 1229.84 1290.43 1230.29 1292.24 1230.62C1292.82 1234.49 1294.09 1238.05 1296.06 1241.31C1298.84 1245.92 1302.66 1249.54 1307.51 1252.16C1312.44 1254.71 1318.05 1255.98 1324.33 1255.98C1329.18 1255.98 1333.63 1255.15 1337.69 1253.48C1341.74 1251.81 1345.2 1249.3 1348.06 1245.96L1338.04 1235.94L1333.79 1231.69L1335.08 1231.69L1358.06 1254.67H1376.31V1235.83L1395.15 1254.67H1413.4V1235.83L1432.24 1254.67H1450.49V1229.25C1452.18 1229.84 1453.93 1230.29 1455.74 1230.62C1456.32 1234.49 1457.59 1238.05 1459.56 1241.31C1462.35 1245.92 1466.16 1249.54 1471.01 1252.16C1475.94 1254.71 1481.55 1255.98 1487.83 1255.98C1492.68 1255.98 1497.13 1255.15 1501.19 1253.48C1505.24 1251.81 1508.7 1249.3 1511.56 1245.96L1501.54 1235.94L1497.29 1231.69L1502.51 1231.68L1516.2 1245.37Z" fill="url(#paint2_linear_873_1550)"/>
<path d="M181.807 2.20413V6.48825C182.573 5.81993 183.392 5.21122 184.265 4.66212L181.807 2.20413Z" fill="url(#paint3_linear_873_1550)"/>
<path d="M0.0595703 60.167V2.20413H18.3071V60.167H0.0595703ZM37.151 60.167V26.2957C37.151 23.3538 36.2366 21.0878 34.4079 19.4976C32.6587 17.8279 30.4722 16.993 27.8483 16.993C26.0196 16.993 24.3896 17.3906 22.9585 18.1857C21.5273 18.9012 20.3744 19.9349 19.4998 21.2866C18.7047 22.6382 18.3071 24.3079 18.3071 26.2957L11.2705 23.1948C11.2705 18.5832 12.2644 14.6475 14.2521 11.3875C16.2399 8.04812 18.9432 5.5038 22.3621 3.75458C25.7811 1.92585 29.6373 1.01148 33.9309 1.01148C37.9859 1.01148 41.6036 1.92585 44.784 3.75458C48.0439 5.58331 50.628 8.12763 52.5362 11.3875C54.4445 14.6475 55.3986 18.5435 55.3986 23.0755V60.167H37.151ZM74.2425 60.167V26.2957C74.2425 23.3538 73.3281 21.0878 71.4994 19.4976C69.7501 17.8279 67.5636 16.993 64.9398 16.993C63.1111 16.993 61.4811 17.3906 60.0499 18.1857C58.6187 18.9012 57.4658 19.9349 56.5912 21.2866C55.7961 22.6382 55.3986 24.3079 55.3986 26.2957L44.9032 24.8645C45.0623 19.9349 46.2152 15.7208 48.3619 12.2224C50.5882 8.64445 53.4903 5.90135 57.0683 3.99311C60.7257 2.00536 64.8205 1.01148 69.3526 1.01148C73.8052 1.01148 77.7409 1.9656 81.1598 3.87384C84.6583 5.70257 87.4014 8.36616 89.3891 11.8646C91.4564 15.2835 92.49 19.4181 92.49 24.2682V60.167H74.2425Z" fill="white"/>
<path d="M129.826 61.4789C123.544 61.4789 117.939 60.2067 113.009 57.6624C108.159 55.0386 104.343 51.4209 101.56 46.8093C98.7769 42.1977 97.3855 36.9898 97.3855 31.1856C97.3855 25.3813 98.7371 20.2132 101.44 15.6811C104.223 11.0695 107.96 7.4518 112.651 4.82797C117.342 2.20413 122.63 0.892218 128.514 0.892218C134.238 0.892218 139.287 2.12462 143.66 4.58943C148.033 7.05425 151.452 10.4732 153.917 14.8462C156.461 19.2193 157.734 24.2284 157.734 29.8736C157.734 30.9073 157.654 32.0204 157.495 33.2131C157.416 34.3262 157.217 35.6381 156.899 37.1488L106.927 37.2681V24.7452L149.147 24.626L141.275 29.8736C141.196 26.5342 140.679 23.7911 139.725 21.6443C138.77 19.4181 137.339 17.7484 135.431 16.6352C133.602 15.4426 131.336 14.8462 128.633 14.8462C125.771 14.8462 123.266 15.5221 121.119 16.8737C119.052 18.1459 117.422 19.9746 116.229 22.3599C115.116 24.7452 114.56 27.6474 114.56 31.0663C114.56 34.4852 115.156 37.4271 116.349 39.8919C117.621 42.2772 119.37 44.1457 121.596 45.4974C123.902 46.7695 126.605 47.4056 129.706 47.4056C132.569 47.4056 135.153 46.9286 137.459 45.9744C139.764 44.9408 141.792 43.4301 143.541 41.4424L153.559 51.4606C150.697 54.8 147.238 57.3046 143.183 58.9743C139.128 60.644 134.676 61.4789 129.826 61.4789Z" fill="white"/>
<path d="M163.56 60.167V2.20413H181.807V60.167H163.56ZM200.651 60.167V26.2957C200.651 23.3538 199.737 21.0878 197.908 19.4976C196.159 17.8279 193.972 16.993 191.349 16.993C189.52 16.993 187.89 17.3906 186.459 18.1857C185.028 18.9012 183.875 19.9349 183 21.2866C182.205 22.6382 181.807 24.3079 181.807 26.2957L174.771 23.1948C174.771 18.5832 175.765 14.6475 177.752 11.3875C179.74 8.04812 182.444 5.5038 185.862 3.75458C189.281 1.92585 193.138 1.01148 197.431 1.01148C201.486 1.01148 205.104 1.92585 208.284 3.75458C211.544 5.58331 214.128 8.12763 216.037 11.3875C217.945 14.6475 218.899 18.5435 218.899 23.0755V60.167H200.651ZM237.743 60.167V26.2957C237.743 23.3538 236.828 21.0878 235 19.4976C233.25 17.8279 231.064 16.993 228.44 16.993C226.611 16.993 224.981 17.3906 223.55 18.1857C222.119 18.9012 220.966 19.9349 220.092 21.2866C219.296 22.6382 218.899 24.3079 218.899 26.2957L208.404 24.8645C208.563 19.9349 209.715 15.7208 211.862 12.2224C214.089 8.64445 216.991 5.90135 220.569 3.99311C224.226 2.00536 228.321 1.01148 232.853 1.01148C237.305 1.01148 241.241 1.9656 244.66 3.87384C248.159 5.70257 250.902 8.36616 252.889 11.8646C254.957 15.2835 255.99 19.4181 255.99 24.2682V60.167H237.743Z" fill="white"/>
<path d="M293.326 61.4789C287.045 61.4789 281.439 60.2067 276.51 57.6624C271.659 55.0386 267.843 51.4209 265.06 46.8093C262.277 42.1977 260.886 36.9898 260.886 31.1856C260.886 25.3813 262.237 20.2132 264.941 15.6811C267.724 11.0695 271.461 7.4518 276.152 4.82797C280.843 2.20413 286.13 0.892218 292.014 0.892218C297.739 0.892218 302.788 2.12462 307.161 4.58943C311.534 7.05425 314.953 10.4732 317.417 14.8462C319.962 19.2193 321.234 24.2284 321.234 29.8736C321.234 30.9073 321.154 32.0204 320.995 33.2131C320.916 34.3262 320.717 35.6381 320.399 37.1488L270.427 37.2681V24.7452L312.647 24.626L304.775 29.8736C304.696 26.5342 304.179 23.7911 303.225 21.6443C302.271 19.4181 300.84 17.7484 298.931 16.6352C297.103 15.4426 294.837 14.8462 292.133 14.8462C289.271 14.8462 286.766 15.5221 284.62 16.8737C282.552 18.1459 280.922 19.9746 279.73 22.3599C278.617 24.7452 278.06 27.6474 278.06 31.0663C278.06 34.4852 278.656 37.4271 279.849 39.8919C281.121 42.2772 282.87 44.1457 285.097 45.4974C287.402 46.7695 290.106 47.4056 293.207 47.4056C296.069 47.4056 298.653 46.9286 300.959 45.9744C303.265 44.9408 305.292 43.4301 307.041 41.4424L317.06 51.4606C314.197 54.8 310.739 57.3046 306.684 58.9743C302.629 60.644 298.176 61.4789 293.326 61.4789Z" fill="white"/>
<path d="M348.17 61.5982C344.751 61.5982 341.372 61.1609 338.033 60.2862C334.773 59.4116 331.712 58.1792 328.849 56.589C326.066 54.9193 323.681 53.0111 321.693 50.8643L332.069 40.369C333.978 42.4362 336.244 44.0662 338.867 45.2588C341.491 46.372 344.354 46.9286 347.455 46.9286C349.601 46.9286 351.231 46.6105 352.344 45.9744C353.537 45.3383 354.133 44.4637 354.133 43.3506C354.133 41.9194 353.418 40.846 351.987 40.1304C350.635 39.3353 348.886 38.6595 346.739 38.1029C344.592 37.4669 342.326 36.791 339.941 36.0754C337.556 35.3598 335.289 34.366 333.143 33.0938C330.996 31.8216 329.247 30.0724 327.895 27.8461C326.543 25.5403 325.868 22.6382 325.868 19.1398C325.868 15.4028 326.822 12.1826 328.73 9.47931C330.638 6.69645 333.341 4.50993 336.84 2.91972C340.338 1.32952 344.433 0.534424 349.124 0.534424C354.054 0.534424 358.586 1.40903 362.72 3.15825C366.935 4.82797 370.353 7.33253 372.977 10.672L362.601 21.1673C360.772 19.0205 358.705 17.5098 356.399 16.6352C354.173 15.7606 351.987 15.3233 349.84 15.3233C347.773 15.3233 346.222 15.6413 345.188 16.2774C344.155 16.834 343.638 17.6688 343.638 18.782C343.638 19.9746 344.314 20.9288 345.666 21.6443C347.017 22.3599 348.766 22.996 350.913 23.5526C353.06 24.1092 355.326 24.785 357.711 25.5801C360.097 26.3752 362.363 27.4486 364.509 28.8003C366.656 30.1519 368.405 31.9807 369.757 34.2864C371.109 36.5127 371.785 39.4546 371.785 43.1121C371.785 48.7573 369.638 53.2496 365.344 56.589C361.13 59.9285 355.406 61.5982 348.17 61.5982Z" fill="white"/>
<path d="M183.91 213.355H91.8286V248.613H138.992C137.778 250.903 136.376 253.108 134.787 255.205C127.623 264.649 117.201 271.251 105.44 273.791C93.6782 276.331 81.3735 274.64 70.7899 269.028C60.2063 263.415 52.0631 254.261 47.8613 243.255C43.6594 232.248 43.6814 220.131 47.9237 209.139C52.1659 198.147 60.3458 189.022 70.9477 183.447C81.5496 177.871 93.8617 176.222 105.616 178.804C110.864 179.956 115.843 181.919 120.379 184.581C126.001 187.879 130.948 192.252 134.89 197.492L167.36 174.269C165.231 171.439 162.94 168.75 160.504 166.21C153.328 158.731 144.884 152.553 135.576 147.93C128.934 144.631 121.847 142.124 114.467 140.503C93.2341 135.839 70.9881 138.818 51.8283 148.891C32.6722 158.964 17.9014 175.452 10.2353 195.312C2.56915 215.171 2.52878 237.064 10.1215 256.951C14.4563 268.304 21.1114 278.566 29.5824 287.169C29.905 287.497 30.2303 287.822 30.5581 288.145C36.7004 294.193 43.7574 299.385 51.5457 303.516C70.6651 313.655 92.9002 316.713 114.152 312.122C135.403 307.533 154.233 295.605 167.169 278.542C171.668 272.61 175.345 266.197 178.16 259.466C182.362 249.414 184.819 236.878 184.819 227.724C184.819 218.57 183.91 213.355 183.91 213.355Z" fill="url(#paint4_linear_873_1550)"/>
<path d="M374.523 213.355H282.442V248.613H329.605C328.391 250.903 326.989 253.108 325.4 255.205C318.237 264.649 307.814 271.251 296.053 273.791C284.291 276.331 271.987 274.64 261.403 269.028C250.82 263.415 242.676 254.261 238.474 243.255C234.273 232.248 234.295 220.131 238.537 209.139C242.779 198.147 250.959 189.022 261.561 183.447C272.163 177.871 284.475 176.222 296.229 178.804C301.477 179.956 306.457 181.919 310.992 184.581C316.615 187.879 321.561 192.252 325.503 197.492L357.973 174.269C355.844 171.439 353.554 168.75 351.117 166.21C343.941 158.731 335.498 152.553 326.189 147.93C319.547 144.631 312.46 142.124 305.08 140.503C283.847 135.839 261.601 138.818 242.441 148.891C223.285 158.964 208.515 175.452 200.848 195.312C199.773 198.098 198.848 200.924 198.072 203.778C193.321 221.274 194.207 239.854 200.735 256.951C208.327 276.837 223.039 293.376 242.159 303.516C261.278 313.655 283.513 316.713 304.765 312.122C326.016 307.533 344.846 295.605 357.782 278.542C362.281 272.61 365.958 266.197 368.773 259.466C372.975 249.414 375.432 236.878 375.432 227.724C375.432 218.57 374.523 213.355 374.523 213.355Z" fill="url(#paint5_linear_873_1550)"/>
<path d="M1189.06 1218.51H1096.98V1253.77H1144.15C1142.93 1256.06 1141.53 1258.26 1139.94 1260.36C1132.78 1269.8 1122.36 1276.41 1110.59 1278.95C1098.83 1281.49 1086.53 1279.79 1075.94 1274.18C1065.36 1268.57 1057.22 1259.42 1053.02 1248.41C1048.81 1237.4 1048.84 1225.29 1053.08 1214.29C1057.32 1203.3 1065.5 1194.18 1076.1 1188.6C1086.7 1183.03 1099.02 1181.38 1110.77 1183.96C1116.02 1185.11 1121 1187.07 1125.53 1189.74C1131.16 1193.03 1136.1 1197.41 1140.04 1202.65L1172.51 1179.42C1164.12 1168.26 1153.2 1159.28 1140.73 1153.08C1134.09 1149.79 1127 1147.28 1119.62 1145.66C1098.39 1140.99 1076.14 1143.97 1056.98 1154.05C1037.83 1164.12 1023.06 1180.61 1015.39 1200.47C1007.72 1220.33 1007.68 1242.22 1015.28 1262.1C1019.61 1273.46 1026.27 1283.72 1034.74 1292.32C1041.1 1298.79 1048.5 1304.32 1056.7 1308.67C1075.82 1318.81 1098.05 1321.87 1119.31 1317.28C1140.56 1312.69 1159.39 1300.76 1172.32 1283.7C1176.82 1277.76 1180.5 1271.35 1183.31 1264.62C1184.72 1261.25 1185.93 1257.6 1186.92 1253.9C1188.89 1246.55 1189.97 1238.96 1189.97 1232.88C1189.97 1223.72 1189.06 1218.51 1189.06 1218.51Z" fill="url(#paint6_linear_873_1550)"/>
<path d="M1379.68 1218.51H1287.6V1253.77H1334.76C1333.55 1256.06 1332.14 1258.26 1330.55 1260.36C1323.39 1269.8 1312.97 1276.41 1301.21 1278.95C1289.45 1281.49 1277.14 1279.79 1266.56 1274.18C1255.97 1268.57 1247.83 1259.42 1243.63 1248.41C1239.43 1237.4 1239.45 1225.29 1243.69 1214.29C1247.93 1203.3 1256.11 1194.18 1266.72 1188.6C1277.32 1183.03 1289.63 1181.38 1301.38 1183.96C1306.63 1185.11 1311.61 1187.07 1316.15 1189.74C1321.77 1193.03 1326.72 1197.41 1330.66 1202.65L1349.99 1188.82L1363.13 1179.42C1360.26 1175.61 1357.09 1172.05 1353.67 1168.77C1347.09 1162.45 1339.55 1157.16 1331.34 1153.08C1324.7 1149.79 1317.61 1147.28 1310.23 1145.66C1289 1140.99 1266.76 1143.97 1247.6 1154.05C1228.44 1164.12 1213.67 1180.61 1206 1200.47C1198.34 1220.33 1198.3 1242.22 1205.89 1262.1C1210.22 1273.46 1216.88 1283.72 1225.35 1292.32C1231.72 1298.79 1239.11 1304.32 1247.31 1308.67C1266.43 1318.81 1288.67 1321.87 1309.92 1317.28C1331.17 1312.69 1350 1300.76 1362.94 1283.7C1367.44 1277.76 1371.11 1271.35 1373.93 1264.62C1378.13 1254.57 1380.59 1242.03 1380.59 1232.88C1380.59 1223.72 1379.68 1218.51 1379.68 1218.51Z" fill="url(#paint7_linear_873_1550)"/>
<path d="M91.8286 213.355H183.91C183.91 213.355 184.819 218.57 184.819 227.724C184.819 236.878 182.362 249.414 178.16 259.466C175.345 266.197 171.668 272.61 167.169 278.542C154.233 295.605 135.403 307.533 114.152 312.122C92.9002 316.713 70.6651 313.655 51.5457 303.516C43.7574 299.385 36.7004 294.193 30.5581 288.145L1034.74 1292.32C1026.27 1283.72 1019.61 1273.46 1015.28 1262.1C1007.68 1242.22 1007.72 1220.33 1015.39 1200.47C1023.06 1180.61 1037.83 1164.12 1056.98 1154.05C1076.14 1143.97 1098.39 1140.99 1119.62 1145.66C1127 1147.28 1134.09 1149.79 1140.73 1153.08C1153.2 1159.28 1164.12 1168.26 1172.51 1179.42L1140.04 1202.65C1136.1 1197.41 1131.16 1193.03 1125.53 1189.74C1121 1187.07 1116.02 1185.11 1110.77 1183.96C1099.02 1181.38 1086.7 1183.03 1076.1 1188.6C1065.5 1194.18 1057.32 1203.3 1053.08 1214.29C1048.84 1225.29 1048.81 1237.4 1053.02 1248.41C1057.22 1259.42 1065.36 1268.57 1075.94 1274.18C1086.53 1279.79 1098.83 1281.49 1110.59 1278.95C1122.36 1276.41 1132.78 1269.8 1139.94 1260.36C1141.53 1258.26 1142.93 1256.06 1144.15 1253.77H1096.98V1218.51H1189.06C1189.06 1218.51 1189.97 1223.72 1189.97 1232.88C1189.97 1238.96 1188.89 1246.55 1186.92 1253.9L1225.35 1292.32C1216.88 1283.72 1210.22 1273.46 1205.89 1262.1C1198.3 1242.22 1198.34 1220.33 1206 1200.47C1213.67 1180.61 1228.44 1164.12 1247.6 1154.05C1266.76 1143.97 1289 1140.99 1310.23 1145.66C1317.61 1147.28 1324.7 1149.79 1331.34 1153.08C1339.55 1157.16 1347.09 1162.45 1353.67 1168.77L351.117 166.21C353.554 168.75 355.844 171.439 357.973 174.269L325.503 197.492C321.561 192.252 316.615 187.879 310.992 184.581C306.457 181.919 301.477 179.956 296.229 178.804C284.475 176.222 272.163 177.871 261.561 183.447C250.959 189.022 242.779 198.147 238.537 209.139C234.295 220.131 234.273 232.248 238.474 243.255C242.676 254.261 250.82 263.415 261.403 269.028C271.987 274.64 284.291 276.331 296.053 273.791C307.814 271.251 318.237 264.649 325.4 255.205C326.989 253.108 328.391 250.903 329.605 248.613H282.442V213.355H374.523C374.523 213.355 375.432 218.57 375.432 227.724C375.432 236.878 372.975 249.414 368.773 259.466C365.958 266.197 362.281 272.61 357.782 278.542C344.846 295.605 326.016 307.533 304.765 312.122C283.513 316.713 261.278 313.655 242.159 303.516C223.039 293.376 208.327 276.837 200.735 256.951C194.207 239.854 193.321 221.274 198.072 203.778L160.504 166.21C162.94 168.75 165.231 171.439 167.36 174.269L134.89 197.492C130.948 192.252 126.001 187.879 120.379 184.581C115.843 181.919 110.864 179.956 105.616 178.804C93.8617 176.222 81.5496 177.871 70.9477 183.447C60.3458 189.022 52.1659 198.147 47.9237 209.139C43.6814 220.131 43.6594 232.248 47.8613 243.255C52.0631 254.261 60.2063 263.415 70.7899 269.028C81.3735 274.64 93.6782 276.331 105.44 273.791C117.201 271.251 127.623 264.649 134.787 255.205C136.376 253.108 137.778 250.903 138.992 248.613H91.8286V213.355Z" fill="url(#paint8_linear_873_1550)"/>
<path d="M1287.6 1218.51H1379.68L1349.99 1188.82L1330.66 1202.65C1326.72 1197.41 1321.77 1193.03 1316.15 1189.74C1311.61 1187.07 1306.63 1185.11 1301.38 1183.96C1289.63 1181.38 1277.32 1183.03 1266.72 1188.6C1256.11 1194.18 1247.93 1203.3 1243.69 1214.29C1239.45 1225.29 1239.43 1237.4 1243.63 1248.41C1247.83 1259.42 1255.97 1268.57 1266.56 1274.18C1277.14 1279.79 1289.45 1281.49 1301.21 1278.95C1312.97 1276.41 1323.39 1269.8 1330.55 1260.36C1332.14 1258.26 1333.55 1256.06 1334.76 1253.77H1287.6V1218.51Z" fill="url(#paint9_linear_873_1550)"/>
<path d="M91.8286 213.355H183.91C183.91 213.355 184.819 218.57 184.819 227.724C184.819 236.878 182.362 249.414 178.16 259.466C175.345 266.197 171.668 272.61 167.169 278.542C154.233 295.605 135.403 307.533 114.152 312.122C92.9002 316.713 70.6651 313.655 51.5457 303.516C32.4263 293.376 17.7142 276.837 10.1215 256.951C2.52878 237.064 2.56915 215.171 10.2353 195.312C17.9014 175.452 32.6722 158.964 51.8283 148.891C70.9881 138.818 93.2341 135.839 114.467 140.503C121.847 142.124 128.934 144.631 135.576 147.93C148.046 154.122 158.963 163.107 167.36 174.269L134.89 197.492C130.948 192.252 126.001 187.879 120.379 184.581C115.844 181.919 110.864 179.956 105.616 178.804C93.8617 176.222 81.5496 177.871 70.9477 183.447C60.3458 189.021 52.1659 198.147 47.9237 209.139C43.6814 220.131 43.6594 232.248 47.8613 243.255C52.0632 254.261 60.2063 263.415 70.7899 269.028C81.3735 274.64 93.6782 276.331 105.44 273.791C117.201 271.251 127.623 264.649 134.787 255.205C136.376 253.108 137.778 250.903 138.992 248.613H91.8286V213.355Z" fill="white"/>
<path d="M282.442 213.355H374.523C374.523 213.355 375.432 218.57 375.432 227.724C375.432 236.878 372.975 249.414 368.773 259.466C365.958 266.197 362.281 272.61 357.782 278.542C344.846 295.605 326.016 307.533 304.765 312.122C283.513 316.713 261.278 313.655 242.159 303.516C223.039 293.376 208.327 276.837 200.735 256.951C193.142 237.064 193.182 215.171 200.848 195.312C208.514 175.452 223.285 158.964 242.441 148.891C261.601 138.818 283.847 135.839 305.08 140.503C312.46 142.124 319.547 144.631 326.189 147.93C338.659 154.122 349.576 163.107 357.973 174.269L325.503 197.492C321.561 192.252 316.614 187.879 310.992 184.581C306.457 181.919 301.477 179.956 296.229 178.804C284.475 176.222 272.163 177.871 261.561 183.447C250.959 189.021 242.779 198.147 238.537 209.139C234.295 220.131 234.273 232.248 238.474 243.255C242.676 254.261 250.819 263.415 261.403 269.028C271.987 274.64 284.291 276.331 296.053 273.791C307.814 271.251 318.237 264.649 325.4 255.205C326.989 253.108 328.391 250.903 329.605 248.613H282.442V213.355Z" fill="white"/>
<defs>
<linearGradient id="paint0_linear_873_1550" x1="0.0595703" y1="0.534424" x2="401.903" y2="413.479" gradientUnits="userSpaceOnUse">
<stop stop-color="#FB923C"/>
<stop offset="0.5" stop-color="#EC4899"/>
<stop offset="1" stop-color="#9333EA"/>
</linearGradient>
<linearGradient id="paint1_linear_873_1550" x1="0.0595703" y1="0.534424" x2="401.903" y2="413.479" gradientUnits="userSpaceOnUse">
<stop stop-color="#FB923C"/>
<stop offset="0.5" stop-color="#EC4899"/>
<stop offset="1" stop-color="#9333EA"/>
</linearGradient>
<linearGradient id="paint2_linear_873_1550" x1="0.0595703" y1="0.534424" x2="401.903" y2="413.479" gradientUnits="userSpaceOnUse">
<stop stop-color="#FB923C"/>
<stop offset="0.5" stop-color="#EC4899"/>
<stop offset="1" stop-color="#9333EA"/>
</linearGradient>
<linearGradient id="paint3_linear_873_1550" x1="0.0595703" y1="0.534424" x2="401.903" y2="413.479" gradientUnits="userSpaceOnUse">
<stop stop-color="#FB923C"/>
<stop offset="0.5" stop-color="#EC4899"/>
<stop offset="1" stop-color="#9333EA"/>
</linearGradient>
<linearGradient id="paint4_linear_873_1550" x1="24.8596" y1="158.756" x2="486.405" y2="587.937" gradientUnits="userSpaceOnUse">
<stop stop-color="#FB923C"/>
<stop offset="0.5" stop-color="#EC4899"/>
<stop offset="1" stop-color="#9333EA"/>
</linearGradient>
<linearGradient id="paint5_linear_873_1550" x1="24.8596" y1="158.756" x2="486.405" y2="587.937" gradientUnits="userSpaceOnUse">
<stop stop-color="#FB923C"/>
<stop offset="0.5" stop-color="#EC4899"/>
<stop offset="1" stop-color="#9333EA"/>
</linearGradient>
<linearGradient id="paint6_linear_873_1550" x1="24.8596" y1="158.756" x2="486.405" y2="587.937" gradientUnits="userSpaceOnUse">
<stop stop-color="#FB923C"/>
<stop offset="0.5" stop-color="#EC4899"/>
<stop offset="1" stop-color="#9333EA"/>
</linearGradient>
<linearGradient id="paint7_linear_873_1550" x1="24.8596" y1="158.756" x2="486.405" y2="587.937" gradientUnits="userSpaceOnUse">
<stop stop-color="#FB923C"/>
<stop offset="0.5" stop-color="#EC4899"/>
<stop offset="1" stop-color="#9333EA"/>
</linearGradient>
<linearGradient id="paint8_linear_873_1550" x1="24.8596" y1="158.756" x2="486.405" y2="587.937" gradientUnits="userSpaceOnUse">
<stop stop-color="#FB923C"/>
<stop offset="0.5" stop-color="#EC4899"/>
<stop offset="1" stop-color="#9333EA"/>
</linearGradient>
<linearGradient id="paint9_linear_873_1550" x1="24.8596" y1="158.756" x2="486.405" y2="587.937" gradientUnits="userSpaceOnUse">
<stop stop-color="#FB923C"/>
<stop offset="0.5" stop-color="#EC4899"/>
<stop offset="1" stop-color="#9333EA"/>
</linearGradient>
</defs>
</svg>
